{"title":"The Stoned Age 1994 DVDRip Xvid BigPerm LKRG","uid":6217467,"size":868036717,"categoryP":"video","categoryS":"movies","magnet":"?xt=urn:btih:15e370dde030583da0b1f26687c94398beaeaae7&amp;dn=The+Stoned+Age+1994+DVDRip+Xvid+BigPerm+LKRG&amp;tr=udp%3A%2F%2Ftracker.openbittorrent.com%3A80&amp;tr=udp%3A%2F%2Fopen.demonii.com%3A1337&amp;tr=udp%3A%2F%2Ftracker.coppersurfer.tk%3A6969&amp;tr=udp%3A%2F%2Fexodus.desync.com%3A6969","seeders":7,"leechers":0,"uploader":"hiest","files":-1,"time":1299214929,"description":"\n ######           ######                       \n #     # #  ####  #     # ###### #####  #    # \n #     # # #    # #     # #      #    # ##  ## \n ######  # #      ######  #####  #    # # ## # \n #     # # #  ### #       #      #####  #    # \n #     # # #    # #       #      #   #  #    # \n ######  #  ####  #       ###### #    # #    # \n                                               \n\nPlot\n\nJoe and Hubbs are a pair of rockers who are on a quest for 'chicks'.\nThis is the tale of their adventures over one night.\n\nGeneral\nComplete name : The Stoned Age 1994 DVDRip Xvid BigPerm LKRGTSA_LKRG.avi\nFormat : AVI\nFormat/Info : Audio Video Interleave\nFile size : 828 MiB\nDuration : 1h 30mn\nOverall bit rate : 1 280 Kbps\n\nVideo\nID : 0\nFormat : MPEG-4 Visual\nFormat profile : Advanced Simple@L5\nFormat settings, BVOP : Yes\nFormat settings, QPel : No\nFormat settings, GMC : No warppoints\nFormat settings, Matrix : Default (H.263)\nCodec ID : XVID\nCodec ID/Hint : XviD\nDuration : 1h 30mn\nBit rate : 1 083 Kbps\nWidth : 704 pixels\nHeight : 396 pixels\nDisplay aspect ratio : 16:9\nFrame rate : 23.976 fps\nColor space : YUV\nChroma subsampling : 4:2:0\nBit depth : 8 bits\nScan type : Progressive\nCompression mode : Lossy\nBits/(Pixel*Frame) : 0.162\nStream size : 700 MiB (85%)\nWriting library : XviD 1.2.1 (UTC 2008-12-04)\n\nAudio\nID : 1\nFormat : AC-3\nFormat/Info : Audio Coding 3\nMode extension : CM (complete main)\nCodec ID : 2000\nDuration : 1h 30mn\nBit rate mode : Constant\nBit rate : 192 Kbps\nChannel(s) : 2 channels\nChannel positions : Front: L R\nSampling rate : 48.0 KHz\nBit depth : 16 bits\nCompression mode : Lossy\nVideo delay : 42ms\nStream size : 124 MiB (15%)\nAlignment : Split accross interleaves\nInterleave, duration : 500 ms (11.99 video frames)\nInterleave, preload duration : 500 ms\nLanguage : English\n &lt;a href=&quot;\nhttp://www.imdb.com/title/tt0111293/&quot; rel=&quot;nofollow&quot; target=&quot;_NEW&quot;&gt;\nhttp://www.imdb.com/title/tt0111293/&lt;/a&gt;\n\n\n\n\n\n\n================================== &lt;a href=&quot;\nhttp://thepiratebay.se/user/hiest&quot; rel=&quot;nofollow&quot; target=&quot;_NEW&quot;&gt;\nhttp://thepiratebay.se/user/hiest&lt;/a&gt;\n==================================\n\n\n\n\n\n\nScreen Shots:\n &lt;a href=&quot;\nhttp://leetleech.org/images/37007323739444926615.png&quot; rel=&quot;nofollow&quot; target=&quot;_NEW&quot;&gt;\nhttp://leetleech.org/images/37007323739444926615.png&lt;/a&gt;\n &lt;a href=&quot;\nhttp://leetleech.org/images/27684842301300192673.png&quot; rel=&quot;nofollow&quot; target=&quot;_NEW&quot;&gt;\nhttp://leetleech.org/images/27684842301300192673.png&lt;/a&gt;\n &lt;a href=&quot;\nhttp://leetleech.org/images/19793758901579245364.png&quot; rel=&quot;nofollow&quot; target=&quot;_NEW&quot;&gt;\nhttp://leetleech.org/images/19793758901579245364.png&lt;/a&gt;\n &lt;a href=&quot;\nhttp://leetleech.org/images/49775224001617554481.png&quot; rel=&quot;nofollow&quot; target=&quot;_NEW&quot;&gt;\nhttp://leetleech.org/images/49775224001617554481.png&lt;/a&gt;\n &lt;a href=&quot;\nhttp://leetleech.org/images/47325407609288307107.png&quot; rel=&quot;nofollow&quot; target=&quot;_NEW&quot;&gt;\nhttp://leetleech.org/images/47325407609288307107.png&lt;/a&gt;\n\n\n ######           ######                       \n #     # #  ####  #     # ###### #####  #    # \n #     # # #    # #     # #      #    # ##  ## \n ######  # #      ######  #####  #    # # ## # \n #     # # #  ### #       #      #####  #    # \n #     # # #    # #       #      #   #  #    # \n ######  #  ####  #       ###### #    # #    # \n                                               ","torrent":{"xt":"urn:btih:15e370dde030583da0b1f26687c94398beaeaae7","amp;dn":"The+Stoned+Age+1994+DVDRip+Xvid+BigPerm+LKRG","amp;tr":["udp%3A%2F%2Ftracker.openbittorrent.com%3A80","udp%3A%2F%2Fopen.demonii.com%3A1337","udp%3A%2F%2Ftracker.coppersurfer.tk%3A6969","udp%3A%2F%2Fexodus.desync.com%3A6969"],"infoHash":"15e370dde030583da0b1f26687c94398beaeaae7","infoHashBuffer":{"type":"Buffer","data":[21,227,112,221,224,48,88,61,160,177,242,102,135,201,67,152,190,174,170,231]},"announce":[],"urlList":[]}}